<?xml version="1.0" encoding="utf-8"?>
<!-- Generator: Adobe Illustrator 16.0.0, SVG Export Plug-In . SVG Version: 6.00 Build 0)  -->
<!DOCTYPE svg PUBLIC "-//W3C//DTD SVG 1.1//EN" "http://www.w3.org/Graphics/SVG/1.1/DTD/svg11.dtd">
<svg version="1.1" id="Layer_1" xmlns="http://www.w3.org/2000/svg" xmlns:xlink="http://www.w3.org/1999/xlink" x="0px" y="0px"
	 width="512px" height="512px" viewBox="0 0 512 512" enable-background="new 0 0 512 512" xml:space="preserve">
<path d="M467.183,211.895L267.684,12.355c-3.103-3.094-7.277-4.829-11.651-4.829c-4.37,0-8.55,1.735-11.647,4.829L44.817,211.895
	c-3.099,3.094-4.829,7.277-4.829,11.643v264.469c0,9.094,7.377,16.467,16.481,16.467h399.098c9.104,0,16.444-7.373,16.444-16.467
	V223.538C472.012,219.327,470.413,215.111,467.183,211.895z M256.032,47.284l176.235,176.254l-48.453,48.458v-56.267
	c0-10.489-8.518-18.998-19.025-18.998h-217.61c-10.476,0-18.988,8.508-18.988,18.998v56.248l-48.426-48.439L256.032,47.284z
	 M72.946,471.544V263.295l97.464,97.469l-67.673,63.389c-4.993,4.67-5.256,12.483-0.586,17.458c2.444,2.594,5.742,3.907,9.035,3.907
	c3.003,0,6.038-1.1,8.423-3.334l68.291-63.939l56.484,56.484c3.098,3.08,7.277,4.82,11.647,4.82c4.374,0,8.549-1.74,11.651-4.82
	l56.417-56.453l68.295,63.907c2.381,2.235,5.415,3.334,8.418,3.334c3.294,0,6.592-1.313,9.04-3.907
	c4.666-4.983,4.402-12.806-0.591-17.458l-67.673-63.357l97.501-97.501v208.249H72.946z"/>
</svg>
